Coordinates
version=1
nRows=5
nColumns=42
inDegrees=yes

Units are S.I. units (second, meters, Newtons, ...)
If the header above contains a line with 'inDegrees', this indicates whether rotational values are in degrees (yes) or radians (no).

endheader
time	pelvis_tilt	pelvis_list	pelvis_rotation	pelvis_tx	pelvis_ty	pelvis_tz	hip_flexion_r	hip_adduction_r	hip_rotation_r	knee_angle_r	knee_adduction_r	knee_angle_r_beta	ankle_angle_r	subtalar_angle_r	mtp_angle_r	hip_flexion_l	hip_adduction_l	hip_rotation_l	knee_angle_l	knee_adduction_l	knee_angle_l_beta	ankle_angle_l	subtalar_angle_l	mtp_angle_l	lumbar_extension	lumbar_bending	lumbar_rotation	arm_flex_r	arm_add_r	arm_rot_r	elbow_flex_r	pro_sup_r	wrist_flex_r	wrist_dev_r	arm_flex_l	arm_add_l	arm_rot_l	elbow_flex_l	pro_sup_l	wrist_flex_l	wrist_dev_l
      2.50000000	      1.26004366	     -8.69128196	     -3.57880862	     -1.22230652	      0.83083367	      0.33921517	      6.03026830	      8.42270061	    -26.10322698	     21.06101686	     -2.37021017	      0.36758409	     19.49120588	     29.58476785	     -7.56113963	     17.48171271	    -22.18599453	    -24.59259634	     56.59899917	    -11.00954067	      0.98783889	     19.20267957	     14.35163517	     -7.56113963	    -27.13046050	      9.57634795	      2.77516734	     -7.06049673	     -2.77059421	    -12.12416799	    104.41867440	     90.00000001	      0.00000000	      0.00000000	      3.11817602	     -7.57275915	    -19.06739941	     51.99979372	     90.00000001	      0.00000000	      0.00000000
      2.51000000	      0.92348754	     -8.70189555	     -3.75744718	     -1.22094304	      0.83027819	      0.33893968	      6.36417942	      8.39902558	    -26.28351911	     21.22653889	     -2.51147905	      0.37047299	     19.61864883	     30.22253869	     -7.55881246	     18.62334726	    -22.35065201	    -26.54059026	     55.28659788	    -12.06995962	      0.96493317	     20.46241221	     16.54867217	     -7.55881246	    -27.00086538	      9.54910558	      2.81373674	     -7.07738544	     -2.74870292	    -11.93958425	    104.47025826	     90.00000001	      0.00000000	      0.00000000	      3.18352825	     -7.61654456	    -18.96502921	     52.01622818	     90.00000001	      0.00000000	      0.00000000
      2.52000000	      0.73040824	     -8.81769419	     -3.73190498	     -1.21981273	      0.82998288	      0.33846406	      6.44714449	      8.46945605	    -26.36011481	     21.18236852	     -2.42707264	      0.36970207	     19.66697947	     30.10988224	     -7.55830913	     19.64717690	    -22.59013160	    -26.91406504	     54.13202161	    -11.77888744	      0.94478201	     20.69458032	     16.62979234	     -7.55830913	    -27.07010785	      9.65554680	      2.71918238	     -7.00816360	     -2.65683093	    -11.84900436	    104.58414777	     90.00000001	      0.00000000	      0.00000000	      3.32641139	     -7.68387826	    -18.92575415	     52.09380957	     90.00000001	      0.00000000	      0.00000000
      2.53000000	      0.36523349	     -8.84062025	     -3.84233246	     -1.21857847	      0.82932633	      0.33791492	      6.81825018	      8.43434251	    -26.45656377	     21.34108663	     -2.49019723	      0.37247223	     19.81156279	     30.47232716	     -7.55633337	     20.84774151	    -22.69734183	    -28.50853373	     52.74573850	    -12.56740316	      0.92058680	     21.55986648	     19.87301932	     -7.55633337	    -26.90769188	      9.65427596	      2.68316776	     -6.99998735	     -2.65044832	    -11.66321208	    104.60907274	     90.00000001	      0.00000000	      0.00000000	      3.48025532	     -7.73667081	    -18.84413247	     51.98907688	     90.00000001	      0.00000000	      0.00000000
      2.54000000	      0.16761096	     -8.86970851	     -3.86516788	     -1.21729045	      0.82894852	      0.33726940	      6.91069392	      8.41094729	    -26.49366682	     21.30753576	     -2.46062297	      0.37188665	     19.97155911	     30.55759753	     -7.55438097	     21.79310026	    -22.75824534	    -29.45344100	     51.35432940	    -12.72807000	      0.89630213	     21.89543059	     22.09042100	     -7.55438097	    -26.91626193	      9.64854854	      2.58824801	     -6.95351241	     -2.55592093	    -11.53956244	    104.71458531	     90.00000001	      0.00000000	      0.00000000	      3.63558575	     -7.82325224	    -18.79554963	     51.96157128	     90.00000001	      0.00000000	      0.00000000
